<svg width="96" height="56" viewBox="0 0 96 56" fill="none" xmlns="http://www.w3.org/2000/svg">
<path d="M48.2345 0L29.0125 19.1991L48.2345 38.3964L67.4583 19.1991L48.2345 0Z" fill="#EF3341"/>
<path d="M45.0926 30.6132C43.4774 30.6132 42.1359 29.9939 41.2066 28.8156C40.0232 27.3161 39.7442 25.1458 40.0818 23.8645C40.1022 23.7712 40.1412 23.683 40.1966 23.6051C40.2519 23.5273 40.3224 23.4613 40.4038 23.4113C40.4852 23.3613 40.576 23.3281 40.6705 23.3139C40.765 23.2997 40.8615 23.3047 40.9541 23.3286C41.0466 23.3525 41.1334 23.3948 41.2092 23.453C41.2851 23.5111 41.3483 23.584 41.3953 23.6672C41.4423 23.7503 41.472 23.8421 41.4826 23.937C41.4932 24.0319 41.4846 24.128 41.4571 24.2194C41.2492 25.0091 41.3807 26.734 42.3242 27.9301C42.9994 28.789 43.9678 29.2078 45.1974 29.1847C47.1182 29.1457 48.0955 27.978 48.5734 27.0073C48.8246 26.5271 48.9832 26.0039 49.0408 25.4652L48.9892 19.3784C48.4265 20.0677 47.7158 20.6218 46.9096 20.9996C46.1035 21.3774 45.2225 21.5693 44.3321 21.5611C41.6881 21.5611 39.8562 20.4006 38.886 18.1114C38.4614 17.1566 37.9976 14.4895 39.2858 12.4026C41.2759 9.19236 44.9042 8.7221 50.3769 10.9669C51.834 11.565 53.0316 11.6342 53.8365 11.1692C54.1283 10.9865 54.3754 10.7409 54.5599 10.4504C54.7444 10.16 54.8614 9.83198 54.9026 9.49049C54.9262 9.30364 55.0231 9.13379 55.172 9.01831C55.321 8.90283 55.5098 8.85118 55.6969 8.87471C55.8839 8.89824 56.054 8.99503 56.1696 9.14379C56.2853 9.29256 56.337 9.4811 56.3134 9.66794C56.2566 10.0974 55.9581 11.5667 54.5366 12.3901C53.3194 13.1 51.7327 13.0556 49.8243 12.273C43.5325 9.69279 41.4731 11.5348 40.4816 13.1443C39.4901 14.7539 39.9077 16.9313 40.1778 17.5399C40.6931 18.7538 41.6242 20.1344 44.3196 20.1344C46.6189 20.1344 48.9395 18.5373 48.9395 14.9881H50.361L50.4498 25.4581C50.4498 26.0402 50.2081 26.915 49.8474 27.6408C49.3144 28.7251 47.996 30.5511 45.2276 30.6097L45.0926 30.6132Z" fill="white"/>
<path d="M6.95817 46.4564H0V47.8353H2.68661V55.7215H4.27334V47.8353H6.95817V46.4564ZM15.0553 49.5513C15.0647 49.1375 14.9866 48.7264 14.8262 48.3448C14.6658 47.9632 14.4266 47.6197 14.1242 47.3366C13.5079 46.7495 12.6836 46.4305 11.8321 46.4493H7.923V55.7215H9.50974V52.639H11.4874L13.0244 55.7215H14.8012L13.1008 52.4154C13.6737 52.1867 14.1676 51.7964 14.5222 51.2921C14.8794 50.7826 15.066 50.1732 15.0553 49.5513ZM12.9568 50.7527C12.8172 50.9131 12.6442 51.0413 12.45 51.1283C12.2558 51.2153 12.0449 51.2591 11.8321 51.2566H9.51329V47.8317H11.8321C12.0477 47.8282 12.2614 47.872 12.4582 47.96C12.655 48.048 12.8301 48.178 12.9711 48.341C13.2726 48.6684 13.4362 49.0994 13.4277 49.5442C13.4313 49.9923 13.2628 50.4248 12.9568 50.7527ZM24.3571 55.7215L24.3038 46.0767L15.4302 55.7215H17.1076L18.5291 54.174H22.7438V55.7215H24.3571ZM22.758 49.6134V52.7703L19.78 52.7934L22.758 49.6134ZM28.9041 55.7215C29.5051 55.7379 30.1029 55.6275 30.6583 55.3976C31.2137 55.1676 31.7142 54.8233 32.1273 54.387C32.9513 53.4871 33.4082 52.3119 33.4082 51.0925C33.4082 49.8731 32.9513 48.6979 32.1273 47.798C31.7149 47.3604 31.2146 47.0147 30.6591 46.7836C30.1037 46.5524 29.5057 46.4409 28.9041 46.4564H25.2811V55.7215H28.9041ZM30.9653 53.4145C30.7147 53.7156 30.399 53.9562 30.0421 54.1182C29.6851 54.2801 29.2961 54.3593 28.9041 54.3497H26.8678V47.8353H28.9041C29.2963 47.8257 29.6855 47.905 30.0425 48.0673C30.3995 48.2296 30.715 48.4706 30.9653 48.7722C31.5099 49.4204 31.797 50.2458 31.772 51.0916C31.8024 51.9393 31.5147 52.7677 30.9653 53.4145Z" fill="#EF3341"/>
<path d="M36.2692 54.3426V51.773V51.7695V47.8317H41.2231V46.4529H34.6825V55.7215H41.2231V54.3426H36.2692Z" fill="#EF3341"/>
<path d="M40.7789 51.773H37.1576V50.3942H40.7789V51.773Z" fill="#EF3341"/>
<path fill-rule="evenodd" clip-rule="evenodd" d="M47.1238 46.3407V55.6057H45.5371V46.3407H47.1238ZM54.3628 46.3407H55.9495V55.9997L50.3222 49.9094H50.2849L50.2973 55.6057H48.7035V45.9609L54.3254 51.9004H54.3716L54.3628 46.3407ZM62.2911 47.5332C61.8377 47.5243 61.3873 47.6088 60.9682 47.7817C60.549 47.9545 60.17 48.2118 59.855 48.5376C59.218 49.1902 58.8615 50.0654 58.8615 50.9768C58.8615 51.8881 59.218 52.7634 59.855 53.4159C60.17 53.7417 60.549 53.999 60.9682 54.1719C61.3873 54.3447 61.8377 54.4293 62.2911 54.4203C62.8312 54.4233 63.3643 54.2974 63.8458 54.053C64.3146 53.8212 64.7247 53.4863 65.0452 53.0734L66.1327 54.1382C65.6587 54.6608 65.0799 55.078 64.434 55.3626C63.7585 55.658 63.0285 55.8085 62.2911 55.8045C61.6285 55.8199 60.9695 55.7032 60.3526 55.4613C59.7357 55.2194 59.1733 54.857 58.6983 54.3955C58.2329 53.9561 57.8622 53.4266 57.6089 52.8392C57.3555 52.2518 57.2249 51.619 57.2249 50.9794C57.2249 50.3399 57.3555 49.707 57.6089 49.1197C57.8622 48.5323 58.2329 48.0027 58.6983 47.5634C59.1728 47.101 59.7351 46.738 60.3521 46.4958C60.9691 46.2535 61.6283 46.1368 62.2911 46.1526C63.025 46.1503 63.7513 46.3014 64.4233 46.5962C65.0727 46.8777 65.6543 47.2946 66.1291 47.8189L65.0417 48.8837C64.7196 48.4723 64.3099 48.1377 63.8423 47.9041C63.3622 47.6589 62.8303 47.5317 62.2911 47.5332ZM72.1669 55.7992C71.5045 55.8149 70.8457 55.6984 70.229 55.4565C69.6124 55.2145 69.0503 54.852 68.5758 54.3902C68.11 53.9511 67.7389 53.4216 67.4853 52.8342C67.2316 52.2468 67.1008 51.6138 67.1008 50.9741C67.1008 50.3344 67.2316 49.7014 67.4853 49.114C67.7389 48.5266 68.11 47.9971 68.5758 47.5581C69.5525 46.6511 70.8368 46.147 72.1704 46.147C73.5041 46.147 74.7883 46.6511 75.765 47.5581C76.2287 47.9983 76.598 48.5282 76.8503 49.1155C77.1026 49.7027 77.2328 50.3351 77.2328 50.9741C77.2328 51.6131 77.1026 52.2455 76.8503 52.8327C76.598 53.42 76.2287 53.9499 75.765 54.3902C75.2889 54.8518 74.7256 55.2141 74.1078 55.456C73.49 55.698 72.8302 55.8146 72.1669 55.7992ZM72.1669 47.5332C71.7124 47.5239 71.2608 47.6083 70.8405 47.7811C70.4201 47.9539 70.0399 48.2115 69.7237 48.5376C69.0867 49.1902 68.7302 50.0654 68.7302 50.9768C68.7302 51.8881 69.0867 52.7634 69.7237 53.4159C70.3721 54.0594 71.2492 54.4206 72.1633 54.4206C73.0774 54.4206 73.9545 54.0594 74.6029 53.4159C75.2354 52.761 75.5888 51.8866 75.5888 50.9768C75.5888 50.0669 75.2354 49.1925 74.6029 48.5376C74.2885 48.2131 73.9106 47.9565 73.4928 47.7837C73.075 47.6109 72.6261 47.5257 72.174 47.5332H72.1669ZM83.1798 50.5748H83.2047L87.8778 45.9609V55.6057H86.2911L86.3035 49.6538H86.2662L83.1922 52.6919L80.1254 49.6538H80.0828L80.0952 55.6057H78.5085V45.9609L83.1798 50.5748ZM91.046 51.6609V54.2304H95.9998V55.6093H89.4592V46.3407H95.9998V47.7195H91.046V51.6573V51.6609ZM91.9344 51.6609H95.5556V50.282H91.9344V51.6609Z" fill="white"/>
</svg>
