<svg width="124" height="124" viewBox="0 0 124 124" fill="none" xmlns="http://www.w3.org/2000/svg">
<circle cx="62" cy="62" r="61" stroke="url(#paint0_linear)" stroke-width="2"/>
<path d="M38.1402 53.6129C38.3171 53.79 38.5494 53.879 38.7816 53.879C39.0138 53.879 39.2461 53.7904 39.4234 53.6129C39.7777 53.2582 39.7777 52.6829 39.4234 52.3283L37.2202 50.1227L39.4234 47.9176C39.7777 47.5624 39.7777 46.9876 39.4234 46.6329C39.0692 46.2783 38.4945 46.2783 38.1402 46.6329L35.2956 49.4806C35.1253 49.6511 35.0298 49.8821 35.0298 50.1227C35.0298 50.3637 35.1253 50.5948 35.2956 50.7652L38.1402 53.6129Z" fill="#585858"/>
<path d="M47.1427 50.1227L44.9395 52.3282C44.5852 52.6829 44.5852 53.2582 44.9399 53.6129C45.1168 53.79 45.3491 53.879 45.5813 53.879C45.8136 53.879 46.0458 53.79 46.2227 53.6129L49.0678 50.7647C49.4221 50.4101 49.4221 49.8348 49.0678 49.4806L46.2227 46.6324C45.8684 46.2778 45.2942 46.2778 44.9399 46.6324C44.5852 46.9876 44.5852 47.5624 44.9399 47.9171L47.1427 50.1227Z" fill="#585858"/>
<path d="M40.8285 53.8155C40.9373 53.8581 41.0499 53.8785 41.1601 53.8785C41.5224 53.8785 41.8644 53.6597 42.0049 53.3022L44.2398 47.6064C44.4233 47.1395 44.1934 46.6125 43.7271 46.4288C43.2612 46.2455 42.7342 46.4752 42.5512 46.9421L40.3158 52.6379C40.1328 53.1047 40.3622 53.6322 40.8285 53.8155Z" fill="#585858"/>
<path d="M36.4494 59.2077H42.562C43.0629 59.2077 43.4692 58.801 43.4692 58.2991C43.4692 57.7976 43.0629 57.3909 42.562 57.3909H36.4494C35.9481 57.3909 35.5422 57.7976 35.5422 58.2991C35.5422 58.801 35.9481 59.2077 36.4494 59.2077Z" fill="#585858"/>
<path d="M56.6406 57.3909H45.8941C45.3932 57.3909 44.9869 57.7976 44.9869 58.2991C44.9869 58.801 45.3932 59.2077 45.8941 59.2077H56.6406C57.142 59.2077 57.5483 58.801 57.5483 58.2991C57.5483 57.7976 57.142 57.3909 56.6406 57.3909Z" fill="#585858"/>
<path d="M36.4494 63.0385H39.0533C39.5542 63.0385 39.9605 62.6318 39.9605 62.1299C39.9605 61.6284 39.5542 61.2217 39.0533 61.2217H36.4494C35.9481 61.2217 35.5422 61.6284 35.5422 62.1299C35.5422 62.6318 35.9481 63.0385 36.4494 63.0385Z" fill="#585858"/>
<path d="M53.3232 61.2217C52.8218 61.2217 52.416 61.6284 52.416 62.1299C52.416 62.6318 52.8218 63.0385 53.3232 63.0385H54.9087C55.4101 63.0385 55.8164 62.6318 55.8164 62.1299C55.8164 61.6284 55.4101 61.2217 54.9087 61.2217H53.3232Z" fill="#585858"/>
<path d="M50.9335 62.1299C50.9335 61.6284 50.5272 61.2217 50.0263 61.2217H42.2379C41.7365 61.2217 41.3307 61.6284 41.3307 62.1299C41.3307 62.6318 41.7365 63.0385 42.2379 63.0385H50.0263C50.5272 63.0385 50.9335 62.6318 50.9335 62.1299Z" fill="#585858"/>
<path d="M56.877 62.1299C56.877 62.6318 57.2833 63.0385 57.7842 63.0385H60.7541C61.2555 63.0385 61.6618 62.6318 61.6618 62.1299C61.6618 61.6284 61.2555 61.2217 60.7541 61.2217H57.7842C57.2833 61.2217 56.877 61.6284 56.877 62.1299Z" fill="#585858"/>
<path d="M51.9356 50.8513H55.0683C55.5697 50.8513 55.976 50.4445 55.976 49.9426C55.976 49.4412 55.5697 49.0344 55.0683 49.0344H51.9356C51.4343 49.0344 51.028 49.4412 51.028 49.9426C51.028 50.4445 51.4343 50.8513 51.9356 50.8513Z" fill="#585858"/>
<path d="M58.5761 50.8513H77.6904C78.1918 50.8513 78.5976 50.4445 78.5976 49.9426C78.5976 49.4412 78.1918 49.0344 77.6904 49.0344H58.5761C58.0748 49.0344 57.6685 49.4412 57.6685 49.9426C57.6685 50.4445 58.0748 50.8513 58.5761 50.8513Z" fill="#585858"/>
<path d="M74.7858 53.031H67.0428C66.5419 53.031 66.1356 53.4377 66.1356 53.9397C66.1356 54.4411 66.5419 54.8478 67.0428 54.8478H74.7858C75.2867 54.8478 75.693 54.4411 75.693 53.9397C75.693 53.4377 75.2867 53.031 74.7858 53.031Z" fill="#585858"/>
<path d="M64.1419 53.031H61.4803C60.979 53.031 60.5731 53.4377 60.5731 53.9397C60.5731 54.4411 60.979 54.8478 61.4803 54.8478H64.1419C64.6433 54.8478 65.0491 54.4411 65.0491 53.9397C65.0491 53.4377 64.6433 53.031 64.1419 53.031Z" fill="#585858"/>
<path d="M51.9356 54.8478H58.4559C58.9568 54.8478 59.3631 54.4411 59.3631 53.9397C59.3631 53.4377 58.9568 53.031 58.4559 53.031H51.9356C51.4343 53.031 51.028 53.4377 51.028 53.9397C51.028 54.4411 51.4343 54.8478 51.9356 54.8478Z" fill="#585858"/>
<path d="M50.0368 65.0212H43.9248C43.4234 65.0212 43.0171 65.428 43.0171 65.9294C43.0171 66.4309 43.4234 66.8376 43.9248 66.8376H50.0368C50.5377 66.8376 50.944 66.4309 50.944 65.9294C50.944 65.428 50.5377 65.0212 50.0368 65.0212Z" fill="#585858"/>
<path d="M41.1453 65.0212H36.4494C35.9481 65.0212 35.5422 65.428 35.5422 65.9294C35.5422 66.4309 35.9481 66.8376 36.4494 66.8376H41.1453C41.6467 66.8376 42.0526 66.4309 42.0526 65.9294C42.0526 65.428 41.6467 65.0212 41.1453 65.0212Z" fill="#585858"/>
<path d="M61.1188 65.0212H53.1341C52.6328 65.0212 52.2269 65.428 52.2269 65.9294C52.2269 66.4309 52.6328 66.8376 53.1341 66.8376H61.1188C61.6197 66.8376 62.026 66.4309 62.026 65.9294C62.026 65.428 61.6197 65.0212 61.1188 65.0212Z" fill="#585858"/>
<path d="M71.9141 60.355H67.5478C67.0469 60.355 66.6406 60.7617 66.6406 61.2632C66.6406 61.7651 67.0469 62.1718 67.5478 62.1718H71.9141C72.4154 62.1718 72.8213 61.7651 72.8213 61.2632C72.8213 60.7617 72.4154 60.355 71.9141 60.355Z" fill="#585858"/>
<path d="M79.4911 62.1718H85.6547C86.1561 62.1718 86.5624 61.7651 86.5624 61.2632C86.5624 60.7617 86.1561 60.355 85.6547 60.355H79.4911C78.9897 60.355 78.5839 60.7617 78.5839 61.2632C78.5839 61.7651 78.9902 62.1718 79.4911 62.1718Z" fill="#585858"/>
<path d="M76.409 60.355H74.9967C74.4953 60.355 74.089 60.7617 74.089 61.2632C74.089 61.7651 74.4953 62.1718 74.9967 62.1718H76.409C76.9104 62.1718 77.3162 61.7651 77.3162 61.2632C77.3162 60.7617 76.9104 60.355 76.409 60.355Z" fill="#585858"/>
<path d="M67.5478 72.07H71.9141C72.4154 72.07 72.8213 71.6638 72.8213 71.1618C72.8213 70.6604 72.4154 70.2537 71.9141 70.2537H67.5478C67.0469 70.2537 66.6406 70.6604 66.6406 71.1618C66.6406 71.6638 67.0469 72.07 67.5478 72.07Z" fill="#585858"/>
<path d="M79.4911 72.07H85.6547C86.1561 72.07 86.5624 71.6638 86.5624 71.1618C86.5624 70.6604 86.1561 70.2537 85.6547 70.2537H79.4911C78.9897 70.2537 78.5839 70.6604 78.5839 71.1618C78.5839 71.6638 78.9902 72.07 79.4911 72.07Z" fill="#585858"/>
<path d="M74.9962 72.07H76.4086C76.9099 72.07 77.3162 71.6638 77.3162 71.1618C77.3162 70.6604 76.9099 70.2537 76.4086 70.2537H74.9962C74.4948 70.2537 74.089 70.6604 74.089 71.1618C74.089 71.6638 74.4948 72.07 74.9962 72.07Z" fill="#585858"/>
<path d="M71.9141 80.1521H67.5478C67.0469 80.1521 66.6406 80.5588 66.6406 81.0603C66.6406 81.5617 67.0469 81.9685 67.5478 81.9685H71.9141C72.4154 81.9685 72.8213 81.5617 72.8213 81.0603C72.8213 80.5588 72.4154 80.1521 71.9141 80.1521Z" fill="#585858"/>
<path d="M85.6547 80.1521H79.4911C78.9897 80.1521 78.5839 80.5588 78.5839 81.0603C78.5839 81.5617 78.9897 81.9685 79.4911 81.9685H85.6547C86.1561 81.9685 86.5624 81.5617 86.5624 81.0603C86.5624 80.5588 86.1561 80.1521 85.6547 80.1521Z" fill="#585858"/>
<path d="M76.409 80.1521H74.9967C74.4953 80.1521 74.089 80.5588 74.089 81.0603C74.089 81.5617 74.4953 81.9685 74.9967 81.9685H76.409C76.9104 81.9685 77.3162 81.5617 77.3162 81.0603C77.3162 80.5588 76.9104 80.1521 76.409 80.1521Z" fill="#585858"/>
<path d="M89.0035 31H34.9935C32.7917 31 31 32.7932 31 34.9978V78.9472C31 81.1514 32.7917 82.9445 34.9935 82.9445H38.4081C38.909 82.9445 39.3153 82.5382 39.3153 82.0363C39.3153 81.5349 38.909 81.1281 38.4081 81.1281H34.9935C33.7921 81.1281 32.8149 80.1499 32.8149 78.9472V75.5015H65.8712V77.0669H65.1517C64.1674 77.0669 63.3671 77.8681 63.3671 78.8534V81.1281H43.9246C43.4237 81.1281 43.0174 81.5349 43.0174 82.0363C43.0174 82.5382 43.4237 82.9445 43.9246 82.9445H52.6486V86.2022H49.909C48.0813 86.2022 46.5947 87.6909 46.5947 89.5201V91.4823C46.5947 92.3171 47.273 92.9961 48.1069 92.9961H75.8207C76.6545 92.9961 77.3328 92.3171 77.3328 91.4823V89.5201C77.3328 87.6909 75.8462 86.2022 74.0185 86.2022H71.2789V85.054H88.0528C89.0366 85.054 89.837 84.2528 89.837 83.2674V82.8399C91.6055 82.4289 92.9275 80.8403 92.9275 78.9472L92.9961 34.9973C92.9966 32.7932 91.2053 31 89.0035 31ZM65.182 73.339V68.9851H88.0225V73.339H65.182ZM67.6856 67.1683V65.2572H85.5185V67.1683H67.6856ZM85.5185 75.1553V77.0669H67.6856V75.1553H85.5185ZM54.463 82.9445H63.3671V83.2679C63.3671 84.2528 64.1674 85.054 65.1517 85.054H69.4645V86.2022H54.463V82.9445ZM74.019 88.0191C74.8458 88.0191 75.5184 88.6924 75.5184 89.5201V91.1797H48.4091V89.5201C48.4091 88.6924 49.0822 88.0191 49.909 88.0191H74.019ZM88.0225 83.2371H65.182V78.8837H88.0225V83.2371ZM91.1131 78.9472C91.1131 79.827 90.589 80.585 89.8374 80.9293V78.853C89.8374 77.8681 89.0366 77.0669 88.0528 77.0669H87.3334V75.5015H91.1131V78.9472ZM91.1131 73.6851H89.8076C89.8261 73.5824 89.8374 68.9548 89.8374 68.9548C89.8374 67.9694 89.0366 67.1683 88.0528 67.1683H87.3334V65.2572H88.0528C89.0366 65.2572 89.8374 64.4555 89.8374 63.4706V59.0562C89.8374 58.0713 89.0366 57.2696 88.0528 57.2696H82.9279C82.4265 57.2696 82.0207 57.6764 82.0207 58.1783C82.0207 58.6797 82.4265 59.0865 82.9279 59.0865H88.0225V63.4403H65.182V59.0865H77.2822C77.7836 59.0865 78.1894 58.6797 78.1894 58.1783C78.1894 57.6764 77.7836 57.2696 77.2822 57.2696H65.1517C64.1674 57.2696 63.3671 58.0713 63.3671 59.0562V63.4706C63.3671 64.4555 64.1674 65.2572 65.1517 65.2572H65.8712V67.1683H65.1517C64.1674 67.1683 63.3671 67.9699 63.3671 68.9548C63.3671 68.9548 63.3785 73.5824 63.3969 73.6851H32.8149V43.3557H91.1131V73.6851ZM91.1131 41.5388H32.8816V34.9973C32.8816 33.7951 33.8588 32.8168 35.0602 32.8168H88.9345C90.1359 32.8168 91.1131 33.7951 91.1131 34.9978V41.5388Z" fill="#585858"/>
<path d="M37.6923 34.4863C36.2241 34.4863 35.0298 35.6819 35.0298 37.1517C35.0298 38.6215 36.2241 39.8175 37.6923 39.8175C39.1605 39.8175 40.3553 38.6215 40.3553 37.1517C40.3553 35.6819 39.1605 34.4863 37.6923 34.4863ZM37.6923 38.0007C37.225 38.0007 36.8442 37.62 36.8442 37.1517C36.8442 36.6839 37.225 36.3027 37.6923 36.3027C38.1601 36.3027 38.5404 36.6839 38.5404 37.1517C38.5404 37.62 38.1601 38.0007 37.6923 38.0007Z" fill="#585858"/>
<path d="M44.4706 34.4863C43.0024 34.4863 41.8076 35.6819 41.8076 37.1517C41.8076 38.6215 43.0024 39.8175 44.4706 39.8175C45.9388 39.8175 47.1331 38.6215 47.1331 37.1517C47.1331 35.6819 45.9383 34.4863 44.4706 34.4863ZM44.4706 38.0007C44.0028 38.0007 43.6225 37.62 43.6225 37.1517C43.6225 36.6839 44.0028 36.3027 44.4706 36.3027C44.9379 36.3027 45.3187 36.6839 45.3187 37.1517C45.3187 37.62 44.9379 38.0007 44.4706 38.0007Z" fill="#585858"/>
<path d="M51.251 34.4863C49.7828 34.4863 48.5885 35.6819 48.5885 37.1517C48.5885 38.6215 49.7828 39.8175 51.251 39.8175C52.7192 39.8175 53.914 38.6215 53.914 37.1517C53.914 35.6819 52.7192 34.4863 51.251 34.4863ZM51.251 38.0007C50.7837 38.0007 50.4029 37.62 50.4029 37.1517C50.4029 36.6839 50.7837 36.3027 51.251 36.3027C51.7188 36.3027 52.0991 36.6839 52.0991 37.1517C52.0991 37.62 51.7188 38.0007 51.251 38.0007Z" fill="#585858"/>
<defs>
<linearGradient id="paint0_linear" x1="1" y1="1" x2="123" y2="123" gradientUnits="userSpaceOnUse">
<stop stop-color="#F8E326"/>
<stop offset="1" stop-color="#FFB432"/>
</linearGradient>
</defs>
</svg>
