<svg width="124" height="124" viewBox="0 0 124 124" fill="none" xmlns="http://www.w3.org/2000/svg">
<circle cx="62" cy="62" r="61" stroke="url(#paint0_linear)" stroke-width="2"/>
<path d="M89.1504 82.405H86.2162C86.4398 81.9732 86.567 81.4836 86.567 80.9647V76.9206C86.567 76.4509 86.1866 76.0702 85.7174 76.0702C85.2482 76.0702 84.8678 76.4509 84.8678 76.9206V80.9647C84.8678 81.7589 84.2222 82.405 83.4288 82.405H58.2536C57.4601 82.405 56.8145 81.7589 56.8145 80.9647V72.1863C57.2459 72.4101 57.735 72.5374 58.2536 72.5374H67.703V73.9778C67.703 75.7098 69.1108 77.1189 70.8412 77.1189C72.5716 77.1189 73.9794 75.7098 73.9794 73.9778V72.5374H83.4288C83.9473 72.5374 84.4364 72.4101 84.8678 72.1863V72.9511C84.8678 73.4208 85.2482 73.8015 85.7174 73.8015C86.1866 73.8015 86.567 73.4208 86.567 72.9511V63.7838C86.567 62.0517 85.1592 60.6425 83.4288 60.6425H78.2002L76.4882 57.6438C75.9308 56.6675 74.8867 56.061 73.7634 56.061H67.9191C66.7957 56.061 65.7517 56.6675 65.1944 57.6438L63.4823 60.6425H58.2537C56.5232 60.6425 55.1154 62.0517 55.1154 63.7838V80.9646C55.1154 81.4835 55.2426 81.9731 55.4662 82.4049H47.075C46.6058 82.4049 46.2254 82.7855 46.2254 83.2553C46.2254 83.7251 46.6058 84.1057 47.075 84.1057H88.3008V86.2992H33.6992V84.1057H43.1016C43.5708 84.1057 43.9512 83.7251 43.9512 83.2553C43.9512 82.7855 43.5708 82.4049 43.1016 82.4049H32.8496C32.3804 82.4049 32 82.7855 32 83.2553V87.1496C32 87.6193 32.3804 88 32.8496 88H89.1504C89.6196 88 90 87.6193 90 87.1496V83.2553C90 82.7857 89.6196 82.405 89.1504 82.405ZM72.2802 73.9778C72.2802 74.7721 71.6346 75.4181 70.8412 75.4181C70.0478 75.4181 69.4022 74.7721 69.4022 73.9778V72.5374H72.2802V73.9778ZM66.6696 58.4876C66.9251 58.04 67.4038 57.7619 67.919 57.7619H73.7633C74.2784 57.7619 74.7571 58.04 75.0128 58.4876L76.2431 60.6426H65.4393L66.6696 58.4876ZM56.8146 63.7838C56.8146 62.9895 57.4602 62.3433 58.2537 62.3433H83.4288C84.2222 62.3433 84.8678 62.9895 84.8678 63.7838V69.3961C84.8678 70.1903 84.2222 70.8365 83.4288 70.8365H58.2536C57.4601 70.8365 56.8145 70.1903 56.8145 69.3961V63.7838H56.8146Z" fill="#313131"/>
<path d="M34.1641 61.3419C34.278 61.5414 34.4676 61.6862 34.6899 61.7435C34.7597 61.7615 34.8309 61.7704 34.9018 61.7704C35.0565 61.7704 35.2097 61.7281 35.3442 61.646L60.028 46.5808L64.3714 53.723C64.6122 54.1189 65.125 54.2489 65.5252 54.0154L80.6658 45.1751L82.3523 48.0479C82.505 48.308 82.7838 48.4674 83.0847 48.4674H83.0923C83.3963 48.4647 83.6755 48.2997 83.8248 48.0347L89.8898 37.2681C90.0381 37.0048 90.0357 36.6825 89.8833 36.4215C89.731 36.1604 89.4517 36 89.1497 36H76.7909C76.4866 36 76.2055 36.1629 76.0541 36.4271C75.9026 36.6913 75.9038 37.0165 76.0573 37.2796L77.731 40.1462L71.9813 43.5032C71.5759 43.7399 71.439 44.2607 71.6754 44.6664C71.9118 45.072 72.4322 45.209 72.8373 44.9724L79.3215 41.1864C79.5163 41.0727 79.6579 40.8863 79.7152 40.668C79.7724 40.4497 79.7408 40.2176 79.6271 40.0228L78.2714 37.7008H87.6952L83.0694 45.9126L81.7017 43.5826C81.4645 43.1786 80.9455 43.0427 80.541 43.2788L65.3892 52.1256L61.0373 44.9694C60.92 44.7767 60.7311 44.6385 60.512 44.5852C60.2929 44.5319 60.0616 44.5679 59.8691 44.6855L35.2057 59.7385L34.0045 57.6342L61.4033 40.9122L65.7881 48.1224C66.0288 48.5183 66.5418 48.6485 66.9418 48.4148L69.3821 46.99C69.7874 46.7533 69.9244 46.2326 69.688 45.8269C69.4516 45.4211 68.9312 45.2841 68.5261 45.5208L66.8061 46.525L62.4128 39.3008C62.2956 39.108 62.1066 38.9698 61.8877 38.9165C61.6685 38.8633 61.4373 38.8992 61.2449 39.0169L32.4147 56.6124C32.0222 56.852 31.8912 57.3608 32.1194 57.7603L34.1641 61.3419Z" fill="#313131"/>
<path d="M45.7413 69C45.1355 69 44.5485 69.0808 43.9897 69.2315C43.4309 69.0808 42.8438 69 42.2382 69C41.6325 69 41.0453 69.0808 40.4866 69.2315C39.9278 69.0808 39.3407 69 38.735 69C35.0213 69 32 72.0213 32 75.735C32 79.4486 35.0213 82.4699 38.735 82.4699C39.3407 82.4699 39.9278 82.3891 40.4865 82.2384C41.0453 82.3891 41.6324 82.4699 42.2381 82.4699C42.8438 82.4699 43.4309 82.3891 43.9896 82.2384C44.5484 82.3891 45.1355 82.4699 45.7412 82.4699C49.4549 82.4699 52.4762 79.4486 52.4762 75.735C52.4762 72.0213 49.4549 69 45.7413 69ZM38.735 81.2701C35.6829 81.2701 33.1998 78.7871 33.1998 75.735C33.1998 72.6828 35.6828 70.1998 38.735 70.1998C41.7871 70.1998 44.2702 72.6828 44.2702 75.735C44.2702 78.7871 41.7871 81.2701 38.735 81.2701ZM42.5831 81.2591C44.3269 80.0407 45.47 78.0189 45.47 75.735C45.47 73.451 44.3269 71.4292 42.5831 70.2108C45.4751 70.3895 47.7733 72.7987 47.7733 75.735C47.7733 78.6712 45.4751 81.0803 42.5831 81.2591ZM46.0862 81.2591C47.83 80.0407 48.9731 78.0189 48.9731 75.735C48.9731 73.451 47.83 71.4292 46.0862 70.2108C48.9782 70.3896 51.2765 72.7987 51.2765 75.735C51.2765 78.6712 48.9782 81.0803 46.0862 81.2591Z" fill="#313131"/>
<path d="M38.7336 75.135C38.2592 75.135 37.8732 74.749 37.8732 74.2745C37.8732 73.8001 38.2591 73.414 38.7336 73.414C39.0241 73.414 39.2931 73.5592 39.4532 73.8023C39.6354 74.079 40.0073 74.1556 40.2841 73.9734C40.5608 73.7912 40.6374 73.4192 40.4552 73.1425C40.1863 72.7342 39.7885 72.4422 39.3347 72.3041V72.0467C39.3347 71.7154 39.0661 71.4468 38.7348 71.4468C38.4035 71.4468 38.1349 71.7154 38.1349 72.0467V72.3033C37.29 72.5604 36.6733 73.3467 36.6733 74.2745C36.6733 75.4106 37.5975 76.3348 38.736 76.3348C39.2105 76.3348 39.5965 76.7208 39.5965 77.1954C39.5965 77.6698 39.2105 78.0558 38.736 78.0558C38.4455 78.0558 38.1765 77.9107 38.0165 77.6676C37.8342 77.3908 37.4622 77.3143 37.1855 77.4964C36.9088 77.6787 36.8322 78.0506 37.0144 78.3274C37.2833 78.7357 37.6811 79.0277 38.135 79.1658V79.4232C38.135 79.7545 38.4035 80.0231 38.7348 80.0231C39.0661 80.0231 39.3347 79.7545 39.3347 79.4232V79.1666C40.1797 78.9095 40.7963 78.1232 40.7963 77.1953C40.7963 76.0593 39.8721 75.135 38.7336 75.135Z" fill="#313131"/>
<defs>
<linearGradient id="paint0_linear" x1="1" y1="1" x2="123" y2="123" gradientUnits="userSpaceOnUse">
<stop stop-color="#F8E326"/>
<stop offset="1" stop-color="#FFB432"/>
</linearGradient>
</defs>
</svg>
