<svg width="124" height="124" viewBox="0 0 124 124" fill="none" xmlns="http://www.w3.org/2000/svg">
<circle cx="62" cy="62" r="61" stroke="url(#paint0_linear)" stroke-width="2"/>
<path d="M93.7799 70.2277C94.1121 69.8322 94.0626 69.2408 93.6696 68.9067L81.324 58.41C80.9357 58.08 80.3461 58.1212 80.0105 58.521L73.4136 66.3765V56.5608C75.2109 56.6865 76.8509 55.3495 76.8509 53.4785V51.5325C77.5196 51.1738 77.9764 50.4649 77.9764 49.6498V48.577C81.096 46.666 83.0114 43.2596 83.0114 39.5547C83.0114 37.2248 82.2733 35.0158 80.8766 33.1666C80.1476 32.2014 78.6636 33.3357 79.3926 34.3008C80.5407 35.8212 81.1476 37.6379 81.1476 39.5547C81.1476 42.7589 79.4062 45.6915 76.603 47.2084C76.3009 47.3718 76.1125 47.689 76.1125 48.034V49.6499C76.1125 49.7918 75.9992 49.9072 75.8598 49.9072H69.2252C69.0858 49.9072 68.9724 49.7918 68.9724 49.6499V48.034C68.9724 47.689 68.7839 47.3719 68.4819 47.2084C65.6485 45.6753 63.9074 42.7104 63.9378 39.4706C63.9812 34.8413 67.7477 30.9864 72.3341 30.8774C73.5519 30.8488 74.7372 31.0725 75.8553 31.5437C76.9664 32.0126 77.6867 30.2826 76.5754 29.8143C75.2142 29.2407 73.7724 28.9681 72.2902 29.003C69.5746 29.0676 67.0195 30.1873 65.0957 32.1559C63.1766 34.1196 62.1044 36.7048 62.0746 39.4367H46.0613C45.8177 39.4367 45.575 39.538 45.4026 39.7111L38.3261 46.8244C38.1533 46.9978 38.0528 47.2421 38.0528 47.4875V63.3722C37.0469 63.6973 36.3162 64.6467 36.3162 65.7654V68.002H35.4046C33.5273 68.002 32 69.5386 32 71.4273V76.5326C32 77.7447 33.8638 77.7447 33.8638 76.5326V71.4273C33.8638 70.5724 34.555 69.8769 35.4046 69.8769H35.4679V78.7081C35.4679 79.9202 37.3318 79.9202 37.3318 78.7081V69.8792H40.2982V86.4466C40.2982 87.2695 39.633 87.939 38.815 87.939C37.997 87.939 37.3316 87.2695 37.3316 86.4466V83.7053C37.3316 82.4932 35.4678 82.4932 35.4678 83.7053V86.4466C35.4678 87.978 36.4896 89.2729 37.8831 89.6802V91.8671C37.8831 92.3849 38.3002 92.8046 38.815 92.8046C39.3298 92.8046 39.7469 92.3849 39.7469 91.8671V89.6802C41.0881 89.2883 42.085 88.0737 42.1577 86.6175H66.3753L73.6218 92.7787C74.0188 93.1161 74.6069 93.0587 74.9353 92.6677L93.7799 70.2277ZM90.5364 71.1845C90.0467 70.3803 89.963 69.3814 90.3116 68.5066L91.7548 69.7336L90.5364 71.1845ZM80.8327 60.4473L82.2771 61.6753C81.8865 61.9168 81.4423 62.0645 80.9723 62.1041C80.502 62.1438 80.0387 62.0723 79.6134 61.8993L80.8327 60.4473ZM74.987 51.782V53.4785C74.987 54.1442 74.4486 54.6858 73.7869 54.6858H71.3572C70.6955 54.6858 70.1571 54.1442 70.1571 53.4785V51.782H74.987ZM67.1084 48.5771V49.6499C67.1084 50.4885 67.5926 51.2134 68.2932 51.5614V53.4786C68.2932 55.2466 69.8179 56.6398 71.5497 56.5609V84.7426H42.162V69.8768H42.1798C42.6946 69.8768 43.1117 69.4571 43.1117 68.9393C43.1117 68.4216 42.6946 68.0019 42.1798 68.0019H41.3138V65.7653C41.3138 64.7772 40.7428 63.923 39.9166 63.5123V48.4248H46.0613C46.5761 48.4248 46.9932 48.0051 46.9932 47.4874V41.3115H62.2195C62.719 44.3162 64.4844 46.9709 67.1084 48.5771ZM38.1801 68.0019V65.7653C38.1801 65.413 38.465 65.1264 38.815 65.1264C39.165 65.1264 39.4498 65.4129 39.4498 65.7653V68.0019H38.1801ZM45.1294 42.6361V46.5499H41.2357L45.1294 42.6361ZM72.4817 86.6174C72.9965 86.6174 73.4136 86.1976 73.4136 85.6799V79.8387C75.8156 82.1614 79.789 81.9694 81.9478 79.3988C84.0317 76.9174 83.7197 73.192 81.2523 71.0943C78.9979 69.1772 75.5412 69.2824 73.4136 71.3475V69.2821L78.3732 63.3761C80.0664 64.3286 82.23 64.1498 83.7454 62.9239L88.8432 67.2582C87.8924 68.9776 88.0722 71.1263 89.2957 72.6621L76.573 87.8121C75.7404 87.3437 74.7886 87.1342 73.8181 87.2161C72.8466 87.298 71.9434 87.6639 71.2005 88.2648L69.2629 86.6174H72.4817ZM74.8967 78.6625C73.2142 77.2319 73.0012 74.6916 74.4221 72.9997C75.8277 71.3256 78.3874 71.113 80.049 72.526C81.7317 73.9566 81.9447 76.4969 80.5238 78.1887C79.6532 79.2256 78.2554 79.7608 76.9198 79.5739C76.1743 79.4648 75.473 79.1526 74.8967 78.6625ZM72.6688 89.5133C73.0592 89.2718 73.5036 89.1241 73.9736 89.0844C74.4437 89.0448 74.907 89.1162 75.3326 89.2893L74.1133 90.7413L72.6688 89.5133Z" fill="#585858"/>
<path d="M60.8308 76.5101C60.4409 76.6271 59.7112 77.0484 59.266 77.2603C59.1735 76.8964 58.9209 76.5308 58.6514 76.2865C57.4833 75.2277 56.2283 76.2372 55.3017 77.0646C54.7942 77.518 54.3196 78.0069 53.824 78.4732C53.8108 78.4856 53.7832 78.5103 53.7477 78.542C54.1142 77.1263 54.6099 75.7518 55.0875 74.3707C55.4733 73.255 56.1423 71.9293 55.4824 70.7869C54.9481 69.8619 53.8179 69.5646 52.8788 70.0307C51.6848 70.6233 50.9973 72.126 50.3666 73.2357C49.1066 75.4524 48.2443 77.8232 47.2234 80.1504C46.7463 81.238 48.3463 82.2056 48.8328 81.0968C50.1012 78.2052 51.2023 75.2949 52.9169 72.6276C53.1001 72.2133 53.388 71.8956 53.7805 71.6749C54.156 71.5876 53.4779 73.325 53.5183 73.2047C52.8969 75.0554 51.7575 77.2401 51.7177 79.2135C51.6954 80.3274 52.853 81.2602 53.9077 80.7864C55.3001 80.1611 56.1752 78.5546 57.4497 77.724C57.4497 77.724 57.547 78.6627 58.5532 79.0171C59.0827 79.2035 59.6726 79.1536 60.184 78.9363C60.5798 78.6962 60.988 78.4806 61.4086 78.2897C61.5479 79.2108 63.0102 79.5064 63.2138 78.4441C63.4822 77.0444 62.1026 76.1284 60.8308 76.5101Z" fill="#585858"/>
<path d="M51.5851 51.5854H59.8825C60.3973 51.5854 60.8144 51.1657 60.8144 50.6479C60.8144 50.1302 60.3973 49.7104 59.8825 49.7104H51.5851C51.0703 49.7104 50.6532 50.1302 50.6532 50.6479C50.6532 51.1657 51.0703 51.5854 51.5851 51.5854Z" fill="#585858"/>
<path d="M44.8313 55.9028C44.8313 56.4205 45.2484 56.8403 45.7632 56.8403H65.7042C66.9091 56.8403 66.9091 54.9653 65.7042 54.9653H45.7632C45.2485 54.9653 44.8313 55.3851 44.8313 55.9028Z" fill="#585858"/>
<path d="M65.7038 60.0576H45.7627C44.5578 60.0576 44.5578 61.9326 45.7627 61.9326H65.7037C66.9087 61.9326 66.9087 60.0576 65.7038 60.0576Z" fill="#585858"/>
<path d="M65.7038 65.1494H45.7627C44.5578 65.1494 44.5578 67.0244 45.7627 67.0244H65.7037C66.9087 67.0244 66.9087 65.1494 65.7038 65.1494Z" fill="#585858"/>
<path d="M74.4516 37.3097L73.3778 35.1207C73.0423 34.4365 72.0421 34.4368 71.7064 35.1207L70.6326 37.3098L68.2319 37.6608C67.4815 37.7704 67.1726 38.7274 67.7155 39.2598L69.4527 40.9637L69.0425 43.3699C68.9141 44.1219 69.7269 44.7116 70.3947 44.3581L72.5421 43.2223L74.6893 44.3581C75.3603 44.7133 76.1698 44.1216 76.0414 43.3699L75.6313 40.9637L77.3685 39.2598C77.9112 38.7274 77.6023 37.7704 76.8521 37.6608L74.4516 37.3097ZM73.9796 39.9651C73.7599 40.1805 73.6597 40.4907 73.7117 40.7949L73.8854 41.8142L72.9758 41.3331C72.7045 41.1895 72.3798 41.1895 72.1085 41.3331L71.1989 41.8143L71.3726 40.7949C71.4245 40.4907 71.3242 40.1805 71.1047 39.9651L70.3683 39.243L71.3857 39.0943C71.6892 39.0499 71.9517 38.8582 72.0873 38.5814L72.5422 37.6542L72.997 38.5814C73.1326 38.8582 73.3951 39.05 73.6985 39.0944L74.7159 39.2431L73.9796 39.9651Z" fill="#585858"/>
<defs>
<linearGradient id="paint0_linear" x1="1" y1="1" x2="123" y2="123" gradientUnits="userSpaceOnUse">
<stop stop-color="#F8E326"/>
<stop offset="1" stop-color="#FFB432"/>
</linearGradient>
</defs>
</svg>
