<svg width="124" height="124" viewBox="0 0 124 124" fill="none" xmlns="http://www.w3.org/2000/svg">
<circle cx="62" cy="62" r="61" stroke="url(#paint0_linear)" stroke-width="2"/>
<path d="M85.999 30H43.999C42.896 30 41.999 30.897 41.999 32V46H43.999V32H51.999V36H46.999C46.447 36 45.999 36.448 45.999 37V46H47.999V38H51.999V40C51.999 41.103 52.896 42 53.999 42H75.999C77.102 42 77.999 41.103 77.999 40V38H81.999V62H83.999V37C83.999 36.448 83.551 36 82.999 36H77.999V32H85.999V92H43.999V86H41.999V93C41.999 93.552 42.447 94 42.999 94H85.999C87.102 94 87.999 93.103 87.999 92V32C87.999 30.897 87.102 30 85.999 30ZM75.999 40H53.999V32H75.999V40Z" fill="#585858"/>
<path d="M83.999 64H81.999V78H71.999C71.447 78 70.999 78.448 70.999 79V88H47.999V86H45.999V89C45.999 89.552 46.447 90 46.999 90H71.999C72.045 90 72.091 89.997 72.136 89.991C72.146 89.99 72.156 89.988 72.166 89.986C72.171 89.985 72.176 89.984 72.182 89.983C72.189 89.982 72.195 89.98 72.201 89.979C72.21 89.977 72.219 89.976 72.227 89.973C72.23 89.972 72.232 89.972 72.235 89.971C72.262 89.964 72.289 89.957 72.316 89.948C72.317 89.948 72.318 89.947 72.319 89.947C72.347 89.938 72.375 89.927 72.402 89.915C72.403 89.915 72.404 89.914 72.404 89.914C72.431 89.902 72.458 89.889 72.484 89.874C72.485 89.874 72.485 89.873 72.486 89.873C72.498 89.866 72.511 89.859 72.523 89.851C72.528 89.848 72.533 89.845 72.538 89.841C72.546 89.836 72.554 89.831 72.562 89.825C72.566 89.822 72.57 89.819 72.574 89.816C72.583 89.81 72.591 89.804 72.599 89.798C72.607 89.792 72.614 89.786 72.622 89.78C72.627 89.776 72.631 89.773 72.636 89.769C72.648 89.759 72.66 89.749 72.672 89.738L83.672 79.738C83.689 79.723 83.705 79.707 83.72 79.691C83.724 79.686 83.729 79.682 83.733 79.677C83.746 79.663 83.759 79.648 83.771 79.633C83.773 79.63 83.776 79.628 83.778 79.625C83.792 79.608 83.805 79.59 83.817 79.573C83.821 79.568 83.824 79.563 83.828 79.557C83.838 79.543 83.847 79.528 83.856 79.513C83.859 79.508 83.862 79.504 83.864 79.499C83.875 79.48 83.885 79.462 83.894 79.442C83.897 79.437 83.899 79.431 83.902 79.426C83.909 79.411 83.916 79.395 83.923 79.379C83.925 79.373 83.928 79.368 83.93 79.362C83.938 79.342 83.945 79.321 83.952 79.3C83.953 79.297 83.954 79.294 83.955 79.291C83.961 79.272 83.966 79.253 83.971 79.234C83.972 79.229 83.973 79.224 83.975 79.219C83.985 79.175 83.992 79.131 83.996 79.086C83.996 79.081 83.997 79.075 83.997 79.07C83.998 79.052 83.999 79.033 84 79.014C84 79.01 84 79.005 84 79.001C84 78.999 84 78.997 84 78.995V64H83.999ZM72.999 80H80.412L75.556 84.415L72.999 86.739V80Z" fill="#585858"/>
<path d="M55.999 35H57.999V37H55.999V35Z" fill="#585858"/>
<path d="M71.999 35H73.999V37H71.999V35Z" fill="#585858"/>
<path d="M76.999 46H53.999C53.447 46 52.999 46.448 52.999 47V51H54.999V48H75.999V62H60.999V64H76.999C77.551 64 77.999 63.552 77.999 63V47C77.999 46.448 77.551 46 76.999 46Z" fill="#585858"/>
<path d="M59.999 68H70.999V70H59.999V68Z" fill="#585858"/>
<path d="M72.999 68H78.999V70H72.999V68Z" fill="#585858"/>
<path d="M56.999 74H67.999V76H56.999V74Z" fill="#585858"/>
<path d="M69.999 74H78.999V76H69.999V74Z" fill="#585858"/>
<path d="M51.999 80H68.999V82H51.999V80Z" fill="#585858"/>
<path d="M59.999 35H69.999V37H59.999V35Z" fill="#585858"/>
<path d="M43.9992 84C44.2102 84 44.4212 83.934 44.5992 83.8L49.0122 80.49C54.1092 76.668 57.5252 71.108 58.6322 64.835L59.9842 57.174C60.0592 56.748 59.8522 56.321 59.4702 56.118L44.4702 48.118C44.1762 47.961 43.8232 47.961 43.5292 48.118L28.5292 56.118C28.1472 56.322 27.9402 56.748 28.0152 57.174L29.3562 64.781C30.4522 70.998 33.8252 76.525 38.8522 80.345L43.3952 83.797C43.5732 83.932 43.7862 84 43.9992 84ZM31.3252 64.433L30.1102 57.541L43.9992 50.133L57.8882 57.541L56.6622 64.487C55.6442 70.258 52.5012 75.373 47.8122 78.89L44.0032 81.747L40.0612 78.752C35.4362 75.238 32.3342 70.153 31.3252 64.433Z" fill="#585858"/>
<path d="M47.8342 76.7439C51.6262 73.8999 54.1672 69.7639 54.9912 65.0969L55.9832 59.4789C56.0582 59.0529 55.8512 58.6259 55.4692 58.4229L50.4672 55.7549L49.5262 57.5199L53.8882 59.8469L53.0222 64.7499C52.2872 68.9159 50.0192 72.6069 46.6352 75.1459L44.0032 77.1199L41.2732 75.0449C37.9352 72.5089 35.6962 68.8389 34.9682 64.7109L34.1092 59.8459L38.4702 57.5199L37.5292 55.7549L32.5282 58.4219C32.1462 58.6259 31.9392 59.0519 32.0142 59.4779L32.9972 65.0559C33.8132 69.6809 36.3222 73.7939 40.0622 76.6359L43.3942 79.1669C43.5732 79.3029 43.7862 79.3709 43.9992 79.3709C44.2102 79.3709 44.4212 79.3049 44.5992 79.1709L47.8342 76.7439Z" fill="#585858"/>
<path d="M43.9973 54.572L47.5283 56.455L48.4693 54.69L44.4673 52.556C44.1733 52.399 43.8203 52.399 43.5263 52.556L39.5273 54.689L40.4683 56.454L43.9973 54.572Z" fill="#585858"/>
<path d="M42.9612 70H42.9992C43.2872 70 43.5612 69.876 43.7512 69.659L50.7512 61.659L49.2462 60.342L43.0582 67.414L40.7992 64.4L39.1992 65.6L42.1992 69.6C42.3802 69.841 42.6602 69.988 42.9612 70Z" fill="#585858"/>
<path d="M42.999 58H44.999V60H42.999V58Z" fill="#585858"/>
<path d="M42.999 72H44.999V74H42.999V72Z" fill="#585858"/>
<defs>
<linearGradient id="paint0_linear" x1="1" y1="1" x2="123" y2="123" gradientUnits="userSpaceOnUse">
<stop stop-color="#F8E326"/>
<stop offset="1" stop-color="#FFB432"/>
</linearGradient>
</defs>
</svg>
