<svg width="124" height="124" viewBox="0 0 124 124" fill="none" xmlns="http://www.w3.org/2000/svg">
<circle cx="62" cy="62" r="61" stroke="url(#paint0_linear)" stroke-width="2"/>
<path d="M41.3337 81.6313H36.1672C35.8932 81.6313 35.6303 81.7402 35.4366 81.934C35.2428 82.1278 35.1339 82.3906 35.1339 82.6646V87.8311C35.1339 88.1052 35.2428 88.368 35.4366 88.5618C35.6303 88.7555 35.8932 88.8644 36.1672 88.8644H41.3337C41.6077 88.8644 41.8705 88.7555 42.0643 88.5618C42.2581 88.368 42.367 88.1052 42.367 87.8311V82.6646C42.367 82.3906 42.2581 82.1278 42.0643 81.934C41.8705 81.7402 41.6077 81.6313 41.3337 81.6313ZM40.3004 86.7978H37.2005V83.6979H40.3004V86.7978Z" fill="#585858"/>
<path d="M44.4338 87.8311C44.4338 88.1052 44.5427 88.368 44.7365 88.5618C44.9303 88.7555 45.1931 88.8644 45.4671 88.8644H50.6336C50.9077 88.8644 51.1705 88.7555 51.3643 88.5618C51.558 88.368 51.6669 88.1052 51.6669 87.8311V82.6646C51.6669 82.3906 51.558 82.1278 51.3643 81.934C51.1705 81.7402 50.9077 81.6313 50.6336 81.6313H45.4671C45.1931 81.6313 44.9303 81.7402 44.7365 81.934C44.5427 82.1278 44.4338 82.3906 44.4338 82.6646V87.8311ZM46.5004 83.6979H49.6003V86.7978H46.5004V83.6979Z" fill="#585858"/>
<path d="M42.367 73.3651C42.367 73.091 42.2581 72.8282 42.0643 72.6344C41.8705 72.4407 41.6077 72.3318 41.3337 72.3318H36.1672C35.8932 72.3318 35.6303 72.4407 35.4366 72.6344C35.2428 72.8282 35.1339 73.091 35.1339 73.3651V78.5316C35.1339 78.8056 35.2428 79.0684 35.4366 79.2622C35.6303 79.456 35.8932 79.5649 36.1672 79.5649H41.3337C41.6077 79.5649 41.8705 79.456 42.0643 79.2622C42.2581 79.0684 42.367 78.8056 42.367 78.5316V73.3651ZM40.3004 77.4983H37.2005V74.3984H40.3004V77.4983Z" fill="#585858"/>
<path d="M44.4338 78.5316C44.4338 78.8056 44.5427 79.0684 44.7365 79.2622C44.9303 79.456 45.1931 79.5649 45.4671 79.5649H50.6336C50.9077 79.5649 51.1705 79.456 51.3643 79.2622C51.558 79.0684 51.6669 78.8056 51.6669 78.5316V73.3651C51.6669 73.091 51.558 72.8282 51.3643 72.6344C51.1705 72.4407 50.9077 72.3318 50.6336 72.3318H45.4671C45.1931 72.3318 44.9303 72.4407 44.7365 72.6344C44.5427 72.8282 44.4338 73.091 44.4338 73.3651V78.5316ZM46.5004 74.3984H49.6003V77.4983H46.5004V74.3984Z" fill="#585858"/>
<path d="M42.367 64.0655C42.367 63.7915 42.2581 63.5287 42.0643 63.3349C41.8705 63.1411 41.6077 63.0322 41.3337 63.0322H36.1672C35.8932 63.0322 35.6303 63.1411 35.4366 63.3349C35.2428 63.5287 35.1339 63.7915 35.1339 64.0655V69.232C35.1339 69.506 35.2428 69.7689 35.4366 69.9626C35.6303 70.1564 35.8932 70.2653 36.1672 70.2653H41.3337C41.6077 70.2653 41.8705 70.1564 42.0643 69.9626C42.2581 69.7689 42.367 69.506 42.367 69.232V64.0655ZM40.3004 68.1987H37.2005V65.0988H40.3004V68.1987Z" fill="#585858"/>
<path d="M45.4671 70.2653H50.6336C50.9077 70.2653 51.1705 70.1564 51.3643 69.9626C51.558 69.7689 51.6669 69.506 51.6669 69.232V64.0655C51.6669 63.7915 51.558 63.5287 51.3643 63.3349C51.1705 63.1411 50.9077 63.0322 50.6336 63.0322H45.4671C45.1931 63.0322 44.9303 63.1411 44.7365 63.3349C44.5427 63.5287 44.4338 63.7915 44.4338 64.0655V69.232C44.4338 69.506 44.5427 69.7689 44.7365 69.9626C44.9303 70.1564 45.1931 70.2653 45.4671 70.2653ZM46.5004 65.0988H49.6003V68.1987H46.5004V65.0988Z" fill="#585858"/>
<path d="M55.8005 63.0322H54.7672C54.4931 63.0322 54.2303 63.1411 54.0365 63.3349C53.8428 63.5287 53.7339 63.7915 53.7339 64.0655V67.1654H55.8005V63.0322Z" fill="#585858"/>
<path d="M53.7339 87.8314C53.7339 88.1054 53.8428 88.3683 54.0365 88.562C54.2303 88.7558 54.4931 88.8647 54.7672 88.8647H59.9337C60.2077 88.8647 60.4705 88.7558 60.6643 88.562C60.8581 88.3683 60.967 88.1054 60.967 87.8314V85.7648H58.9004V86.7981H55.8005V78.5317H53.7339V87.8314Z" fill="#585858"/>
<path d="M54.766 54.7656H56.8326V56.8322H54.766V54.7656Z" fill="#585858"/>
<path d="M50.6334 54.7656H52.7V56.8322H50.6334V54.7656Z" fill="#585858"/>
<path d="M46.5009 54.7656H48.5674V56.8322H46.5009V54.7656Z" fill="#585858"/>
<path d="M60.9669 37.2H80.5995V39.2665H60.9669V37.2Z" fill="#585858"/>
<path d="M60.9669 41.3333H80.5995V43.3998H60.9669V41.3333Z" fill="#585858"/>
<path d="M67.165 52.6995H69.2316V54.7661H67.165V52.6995Z" fill="#585858"/>
<path d="M71.2975 49.5994H73.3641V53.7325H71.2975V49.5994Z" fill="#585858"/>
<path d="M75.4329 52.6995H77.4995V54.7661H75.4329V52.6995Z" fill="#585858"/>
<path d="M79.5668 47.5327H81.6334V55.7991H79.5668V47.5327Z" fill="#585858"/>
<path d="M86.0753 81.5131C88.3482 78.1167 89.2819 73.9986 88.696 69.9541C88.1101 65.9096 86.0463 62.2256 82.903 59.6138C79.7598 57.0021 75.7603 55.6477 71.6769 55.8124C67.5935 55.977 63.7159 57.649 60.7932 60.5054C60.9064 60.3358 60.9667 60.1364 60.9663 59.9325V51.6661C60.9663 51.3921 60.8574 51.1292 60.6636 50.9355C60.4699 50.7417 60.207 50.6328 59.933 50.6328H36.1672C35.8932 50.6328 35.6303 50.7417 35.4366 50.9355C35.2428 51.1292 35.1339 51.3921 35.1339 51.6661V59.9325C35.1339 60.2065 35.2428 60.4693 35.4366 60.6631C35.6303 60.8569 35.8932 60.9658 36.1672 60.9658H59.933C60.137 60.966 60.3364 60.9056 60.5059 60.7922C57.6493 63.7148 55.9771 67.5925 55.8123 71.676C55.6475 75.7596 57.0018 79.7593 59.6137 82.9027C62.2255 86.046 65.9096 88.11 69.9542 88.6958C73.9989 89.2817 78.1172 88.3479 81.5136 86.0748L87.4938 92.055C87.7927 92.3552 88.1482 92.5931 88.5397 92.7549C88.9312 92.9168 89.3509 92.9994 89.7745 92.9979C90.198 92.9983 90.6175 92.9153 91.0088 92.7534C91.4001 92.5915 91.7557 92.3541 92.0552 92.0546C92.3546 91.7552 92.5921 91.3996 92.7539 91.0083C92.9158 90.6169 92.9989 90.1975 92.9984 89.774C92.9999 89.3504 92.9173 88.9307 92.7554 88.5393C92.5936 88.1478 92.3557 87.7923 92.0555 87.4934L86.0753 81.5131ZM58.8997 58.8992H37.2005V52.6994H58.8997V58.8992ZM57.8664 72.332C57.8664 69.4709 58.7148 66.674 60.3044 64.2951C61.8939 61.9161 64.1532 60.062 66.7966 58.967C69.4399 57.8721 72.3486 57.5857 75.1547 58.1438C77.9609 58.702 80.5385 60.0798 82.5616 62.1029C84.5847 64.126 85.9625 66.7036 86.5207 69.5098C87.0789 72.316 86.7924 75.2246 85.6975 77.8679C84.6026 80.5113 82.7484 82.7706 80.3695 84.3601C77.9905 85.9497 75.1937 86.7981 72.3325 86.7981C68.4972 86.7938 64.8202 85.2683 62.1082 82.5563C59.3962 79.8443 57.8707 76.1673 57.8664 72.332ZM90.5938 90.5933C90.3759 90.8094 90.0815 90.9309 89.7745 90.9313C89.6224 90.932 89.4717 90.9025 89.331 90.8444C89.1904 90.7864 89.0627 90.701 88.9553 90.5933L83.1688 84.8075C83.7525 84.2999 84.3003 83.7523 84.808 83.1687L90.5938 88.9551C90.7015 89.0625 90.7868 89.1902 90.8448 89.3307C90.9028 89.4713 90.9324 89.622 90.9318 89.774C90.9314 90.081 90.8099 90.3753 90.5938 90.5933Z" fill="#585858"/>
<path d="M72.3329 59.9324C69.8805 59.9324 67.4832 60.6596 65.4441 62.0221C63.405 63.3846 61.8157 65.3211 60.8772 67.5868C59.9387 69.8525 59.6932 72.3457 60.1716 74.7509C60.65 77.1562 61.831 79.3656 63.5651 81.0997C65.2992 82.8338 67.5086 84.0148 69.9139 84.4932C72.3191 84.9716 74.8123 84.7261 77.078 83.7876C79.3437 82.8491 81.2802 81.2598 82.6427 79.2207C84.0052 77.1816 84.7324 74.7843 84.7324 72.3319C84.7287 69.0445 83.4212 65.8928 81.0966 63.5682C78.772 61.2436 75.6203 59.9361 72.3329 59.9324ZM66.9811 75.4784C65.2119 74.7951 63.6209 73.7192 62.3278 72.3319C63.623 70.9423 65.2172 69.8652 66.9899 69.182C66.4303 70.1365 66.1347 71.2226 66.1331 72.329C66.1316 73.4354 66.4242 74.5224 66.9811 75.4784ZM77.6551 69.1736C79.436 69.8566 81.0376 70.9367 82.338 72.3319C81.0413 73.7231 79.445 74.8011 77.6701 75.4842C78.2372 74.5289 78.5353 73.4379 78.5326 72.3269C78.53 71.2159 78.2268 70.1263 77.6551 69.1736ZM72.3329 61.999C74.5688 62.002 76.7436 62.7291 78.5317 64.0714C80.3199 65.4136 81.6253 67.2989 82.2525 69.445C79.5647 67.3144 76.0898 66.1321 72.3329 66.1321C68.576 66.1321 65.1011 67.3144 62.4133 69.445C63.0405 67.2989 64.3459 65.4136 66.1341 64.0714C67.9222 62.7291 70.097 62.002 72.3329 61.999ZM72.3329 82.6649C70.097 82.6618 67.9222 81.9347 66.1341 80.5925C64.3459 79.2502 63.0405 77.3649 62.4133 75.2188C65.1011 77.3495 68.576 78.5317 72.3329 78.5317C76.0898 78.5317 79.5647 77.3495 82.2525 75.2188C81.6253 77.3649 80.3199 79.2502 78.5317 80.5925C76.7436 81.9347 74.5688 82.6618 72.3329 82.6649ZM68.1997 72.3319C68.1997 71.5144 68.4421 70.7153 68.8963 70.0356C69.3504 69.3559 69.996 68.8262 70.7512 68.5134C71.5064 68.2005 72.3375 68.1187 73.1392 68.2781C73.941 68.4376 74.6775 68.8313 75.2555 69.4093C75.8335 69.9873 76.2272 70.7238 76.3867 71.5256C76.5461 72.3273 76.4643 73.1584 76.1515 73.9136C75.8386 74.6689 75.3089 75.3144 74.6292 75.7685C73.9495 76.2227 73.1504 76.4651 72.3329 76.4651C71.2367 76.4651 70.1854 76.0296 69.4103 75.2545C68.6352 74.4794 68.1997 73.4281 68.1997 72.3319Z" fill="#585858"/>
<path d="M72.332 74.3988C73.4733 74.3988 74.3986 73.4736 74.3986 72.3322C74.3986 71.1909 73.4733 70.2656 72.332 70.2656C71.1906 70.2656 70.2654 71.1909 70.2654 72.3322C70.2654 73.4736 71.1906 74.3988 72.332 74.3988Z" fill="#585858"/>
<path d="M83.6993 45.4661H85.7659V57.8656H83.6993V45.4661Z" fill="#585858"/>
<path fill-rule="evenodd" clip-rule="evenodd" d="M59.9323 90.931H36.1665C35.3446 90.9301 34.5567 90.6032 33.9756 90.022C33.3944 89.4409 33.0675 88.653 33.0666 87.8312V50.6325C33.0675 49.8107 33.3944 49.0228 33.9756 48.4416C34.5567 47.8605 35.3446 47.5336 36.1665 47.5327H59.9323C60.7541 47.5336 61.542 47.8605 62.1231 48.4416C62.7043 49.0228 63.0312 49.8107 63.0321 50.6325V55.799H65.0987V50.6325C65.0972 49.2628 64.5524 47.9496 63.5838 46.981C62.6152 46.0124 61.302 45.4676 59.9323 45.4661H36.1665C34.7967 45.4676 33.4835 46.0124 32.5149 46.981C31.5464 47.9496 31.0015 49.2628 31 50.6325V57.2953C31.028 56.7497 31.4793 56.3159 32.0319 56.3159C32.6026 56.3159 33.0652 56.7785 33.0652 57.3492L31 57.3485V59.3586C31.0297 58.8145 31.4803 58.3825 32.0317 58.3825C32.6024 58.3825 33.065 58.8451 33.065 59.4158V61.3532V61.3532C33.065 60.7826 32.6024 60.32 32.0317 60.32C31.4803 60.32 31.0297 60.752 31 61.296V87.8312C31.0015 89.2009 31.5464 90.5141 32.5149 91.4827C33.4835 92.4513 34.7967 92.9961 36.1665 92.9976H59.9323C61.0781 92.9984 62.1918 92.6181 63.0977 91.9164C64.0036 91.2147 64.6504 90.2316 64.9361 89.1219L62.9341 88.607C62.7625 89.2726 62.3745 89.8621 61.831 90.2829C61.2875 90.7036 60.6196 90.9316 59.9323 90.931Z" fill="#585858"/>
<path fill-rule="evenodd" clip-rule="evenodd" d="M92.6951 39.569L84.4288 31.3026C84.3328 31.2067 84.2189 31.1306 84.0935 31.0786C83.9682 31.0267 83.8338 31 83.6981 31H54.7658C54.4918 31 54.229 31.1089 54.0352 31.3026C53.8414 31.4964 53.7325 31.7592 53.7325 32.0333V43.3995H55.7991V33.0666H82.6648V40.2997C82.6648 40.5737 82.7737 40.8365 82.9674 41.0303C83.1612 41.2241 83.424 41.3329 83.6981 41.3329H90.9312V43.406C90.9679 43.9433 91.4154 44.3678 91.962 44.3678C92.5327 44.3678 92.9953 43.9052 92.9953 43.3345V45.272C92.9953 45.3045 92.9938 45.3366 92.9909 45.3683C92.9939 45.4005 92.9954 45.4331 92.9954 45.4661V47.4035C92.9954 47.4473 92.9927 47.4904 92.9874 47.5327C92.9239 47.023 92.4891 46.6286 91.9621 46.6286C91.4352 46.6286 91.0004 47.023 90.9368 47.5327C90.9344 47.513 90.9325 47.4931 90.9312 47.4731V80.5982H88.8646V82.6647H91.9644C92.2385 82.6647 92.5013 82.5559 92.6951 82.3621C92.8889 82.1683 92.9977 81.9055 92.9977 81.6314V40.2997C92.9977 40.164 92.971 40.0296 92.9191 39.9042C92.8672 39.7789 92.7911 39.6649 92.6951 39.569ZM90.9312 45.3965C90.9317 45.3876 90.9325 45.3786 90.9333 45.3697C90.9325 45.361 90.9318 45.3522 90.9312 45.3435V45.3965ZM84.7314 34.5279L89.4698 39.2664H84.7314V34.5279Z" fill="#585858"/>
<defs>
<linearGradient id="paint0_linear" x1="1" y1="1" x2="123" y2="123" gradientUnits="userSpaceOnUse">
<stop stop-color="#F8E326"/>
<stop offset="1" stop-color="#FFB432"/>
</linearGradient>
</defs>
</svg>
