<svg width="124" height="124" viewBox="0 0 124 124" fill="none" xmlns="http://www.w3.org/2000/svg">
<circle cx="62" cy="62" r="61" stroke="url(#paint0_linear)" stroke-width="2"/>
<path d="M89.4513 57.7144H88.6021V55.1424V45.9991C88.6021 43.0056 86.1882 40.5702 83.2213 40.5702H59.8878L44.1459 36.0324C44.1414 36.0311 44.1367 36.0305 44.1322 36.0292C44.1276 36.0279 44.1231 36.0261 44.1185 36.025C44.109 36.0226 44.0996 36.0214 44.0902 36.0194C44.0756 36.0163 44.0609 36.0131 44.0463 36.0107C44.0331 36.0085 44.02 36.0071 44.0068 36.0055C43.9914 36.0037 43.9761 36.0021 43.9608 36.0012C43.9483 36.0005 43.936 36.0004 43.9235 36.0002C43.9077 35.9999 43.8919 35.9998 43.8762 36.0005C43.8645 36.001 43.8528 36.0021 43.8413 36.003C43.8251 36.0044 43.8089 36.0059 43.7929 36.0083C43.782 36.0099 43.7713 36.0119 43.7605 36.0139C43.744 36.0169 43.7277 36.0201 43.7115 36.0241C43.7014 36.0266 43.6915 36.0294 43.6816 36.0323C43.665 36.0371 43.6487 36.042 43.6324 36.0477C43.6232 36.051 43.6142 36.0546 43.605 36.0582C43.5886 36.0646 43.5722 36.0714 43.5563 36.0788C43.5478 36.0828 43.5395 36.0872 43.5311 36.0914C43.5152 36.0995 43.4994 36.1077 43.484 36.117C43.476 36.1217 43.4683 36.1267 43.4603 36.1317C43.4451 36.1413 43.4302 36.1512 43.4157 36.1618C43.4081 36.1673 43.4007 36.1732 43.3933 36.179C43.3793 36.1899 43.3655 36.201 43.3523 36.2128C43.3448 36.2194 43.3376 36.2264 43.3304 36.2332C43.3179 36.2451 43.3056 36.257 43.2938 36.2696C43.2864 36.2774 43.2795 36.2857 43.2724 36.2939C43.2616 36.3064 43.251 36.3189 43.2409 36.3321C43.2337 36.3416 43.2269 36.3513 43.2199 36.361C43.211 36.3737 43.2022 36.3865 43.194 36.3996C43.187 36.4108 43.1805 36.4225 43.1741 36.434C43.1669 36.4467 43.1598 36.4595 43.1533 36.4727C43.147 36.4855 43.1413 36.4986 43.1355 36.5117C43.1299 36.5247 43.1243 36.5376 43.1193 36.5508C43.1141 36.5648 43.1096 36.5791 43.105 36.5935C43.102 36.6027 43.0984 36.6114 43.0957 36.6208C43.0943 36.6255 43.0937 36.63 43.0925 36.6346C43.0913 36.6393 43.0894 36.6437 43.0883 36.6484L42.1168 40.57H39.3814C36.4204 40.57 34.0106 42.9956 34.0009 45.9808C34.0008 45.987 34 45.9928 34 45.9989V75.7145C34 76.1876 34.3818 76.5717 34.8496 76.5717C35.3186 76.5717 35.6992 76.1876 35.6992 75.7145V49.9526C36.6626 50.8664 37.9578 51.4281 39.3814 51.4281H83.2213C83.2223 51.4281 83.2232 51.4279 83.2242 51.4279C85.2529 51.4295 86.9029 53.0952 86.9029 55.1425V61.1432H77.5559C77.5553 61.1432 77.5549 61.1433 77.5543 61.1433C77.5297 61.1433 77.5052 61.1448 77.4809 61.147C77.4538 61.1494 77.4271 61.1533 77.4008 61.1582C77.3968 61.1589 77.393 61.1592 77.389 61.16C77.3668 61.1645 77.3451 61.1704 77.3234 61.1766C77.3187 61.178 77.3138 61.1789 77.3092 61.1804C77.2899 61.1863 77.2712 61.1934 77.2525 61.2006C77.2454 61.2033 77.2381 61.2056 77.231 61.2086C77.2154 61.2151 77.2003 61.2228 77.1852 61.2302C77.1753 61.235 77.1652 61.2395 77.1554 61.2446C77.1437 61.2509 77.1325 61.2581 77.1212 61.2649C77.1086 61.2725 77.0958 61.2798 77.0836 61.288C77.0753 61.2935 77.0677 61.2998 77.0598 61.3056C77.0453 61.3161 77.0307 61.3265 77.0169 61.3381C77.0109 61.3431 77.0053 61.3487 76.9996 61.3539C76.9847 61.3669 76.9699 61.3798 76.9558 61.394C76.9476 61.4023 76.9401 61.4115 76.9323 61.4201C76.9213 61.4321 76.91 61.4439 76.8995 61.4567C76.882 61.4783 76.8655 61.5007 76.8501 61.5239C76.8498 61.5243 76.8495 61.5247 76.8492 61.5252L72.3182 68.3827C72.2866 68.4305 72.2599 68.4811 72.2387 68.5338C72.2306 68.5535 72.2242 68.5735 72.2177 68.5934C72.2158 68.5994 72.2133 68.6053 72.2115 68.6113C72.2052 68.6325 72.2003 68.6538 72.1956 68.6751C72.1944 68.6807 72.1928 68.6862 72.1917 68.6918C72.1879 68.711 72.1855 68.7303 72.1831 68.7496C72.1821 68.7578 72.1805 68.7661 72.1797 68.7744C72.1781 68.7903 72.1777 68.8061 72.1772 68.822C72.1766 68.8341 72.1756 68.8462 72.1756 68.8584C72.1756 68.8702 72.1766 68.882 72.1771 68.8937C72.1776 68.91 72.1781 68.9263 72.1797 68.9425C72.1805 68.9504 72.1819 68.9583 72.183 68.9662C72.1855 68.9858 72.1879 69.0055 72.1918 69.025C72.1928 69.0304 72.1944 69.0357 72.1956 69.041C72.2003 69.0625 72.2053 69.084 72.2116 69.1054C72.2134 69.1115 72.2159 69.1173 72.2178 69.1235C72.2243 69.1433 72.2308 69.1633 72.2388 69.183C72.2601 69.2356 72.2868 69.2863 72.3186 69.3342L76.8495 76.1907C76.8497 76.1911 76.8499 76.1913 76.8501 76.1916C76.8684 76.219 76.8883 76.245 76.9094 76.2701C76.9163 76.2783 76.9237 76.2859 76.9308 76.2937C76.9452 76.3096 76.9601 76.3249 76.9757 76.3397C76.9848 76.3483 76.9939 76.3568 77.0032 76.3649C77.0197 76.3792 77.0368 76.3926 77.0544 76.4056C77.0623 76.4114 77.0699 76.4178 77.0779 76.4233C77.1034 76.4408 77.1298 76.4569 77.1571 76.4715C77.164 76.4752 77.1712 76.4783 77.1781 76.4817C77.1998 76.4927 77.222 76.5029 77.2448 76.5119C77.2536 76.5154 77.2625 76.5186 77.2714 76.5218C77.2931 76.5296 77.315 76.5365 77.3375 76.5425C77.3466 76.5449 77.3557 76.5474 77.365 76.5497C77.388 76.5551 77.4113 76.5592 77.435 76.5626C77.4436 76.5639 77.4521 76.5656 77.4607 76.5666C77.4899 76.5699 77.5196 76.5718 77.5498 76.572C77.5521 76.572 77.5545 76.5725 77.557 76.5725C77.5575 76.5725 77.558 76.5723 77.5586 76.5723H86.9033V82.5735C86.9033 84.6218 85.2516 86.2882 83.2216 86.2882H39.3819C37.3519 86.2882 35.7002 84.6218 35.7002 82.5735C35.7002 82.5691 35.6997 82.5647 35.6996 82.5603V79.1437C35.6996 78.6716 35.3189 78.2865 34.8499 78.2865C34.3821 78.2865 34.0003 78.6716 34.0003 79.1437V82.5735C34.0003 82.5824 34.0014 82.5911 34.0017 82.5999C34.0159 85.5813 36.4236 88.0026 39.3819 88.0026H83.2216C86.1883 88.0026 88.602 85.5676 88.6025 82.5744C88.6025 82.5743 88.6025 82.5742 88.6025 82.574V76.5723H89.4516C90.8568 76.5723 92 75.4189 92 74.0013V60.2855C91.9997 58.8678 90.8564 57.7144 89.4513 57.7144ZM44.5238 37.9243L59.5153 42.2459C59.516 42.2462 59.5168 42.2463 59.5175 42.2465L69.565 45.1429H42.7356L44.5238 37.9243ZM86.9028 51.1886C85.9396 50.275 84.6446 49.7135 83.2213 49.7135C83.2198 49.7135 83.2185 49.7137 83.2169 49.7137H39.3814C37.3513 49.7137 35.6997 48.0473 35.6997 45.9991C35.6997 43.9509 37.3513 42.2846 39.3814 42.2846H41.6921L40.9841 45.1429H39.3816C38.9124 45.1429 38.532 45.5267 38.532 46C38.532 46.4734 38.9124 46.8572 39.3816 46.8572H41.6445C41.6457 46.8572 41.6469 46.8575 41.6482 46.8575C41.6491 46.8575 41.65 46.8572 41.6508 46.8572H75.6284C75.6295 46.8572 75.6306 46.8575 75.6316 46.8575C75.6325 46.8575 75.6334 46.8572 75.6343 46.8572H82.0875C82.5567 46.8572 82.9371 46.4734 82.9371 46C82.9371 45.5267 82.5567 45.1429 82.0875 45.1429H75.7502L65.8348 42.2846H83.2212C85.2512 42.2846 86.9028 43.9509 86.9028 45.9991V51.1886ZM90.3004 74.0008C90.3004 74.4732 89.9195 74.8575 89.4513 74.8575H78.0106L74.0459 68.858L78.0106 62.8575H89.4513C89.4632 62.8575 89.4747 62.8561 89.4865 62.8556C89.7715 62.8516 90.0452 62.8004 90.3004 62.7092V74.0008ZM89.4513 61.1422C89.4454 61.1422 89.4396 61.143 89.4337 61.1431H88.6021V59.4287H89.4513C89.9195 59.4287 90.3004 59.8131 90.3004 60.2855C90.3004 60.7578 89.9195 61.1422 89.4513 61.1422Z" fill="#474747"/>
<path d="M60 67.5056C58.8447 67.5056 57.9048 66.6171 57.9048 65.525C57.9048 64.4328 58.8447 63.5443 60 63.5443C61.1553 63.5443 62.0952 64.4328 62.0952 65.525C62.0952 66.0994 62.5217 66.5652 63.0476 66.5652C63.5735 66.5652 64 66.0994 64 65.525C64 63.6189 62.6996 62.0162 60.9524 61.5812V61.0402C60.9524 60.4658 60.5259 60 60 60C59.4741 60 59.0476 60.4658 59.0476 61.0402V61.5812C57.3004 62.0162 56 63.6189 56 65.525C56 67.7642 57.7944 69.5859 60 69.5859C61.1553 69.5859 62.0952 70.4745 62.0952 71.5666C62.0952 72.6588 61.1553 73.5473 60 73.5473C58.8447 73.5473 57.9048 72.6588 57.9048 71.5666C57.9048 70.9923 57.4783 70.5265 56.9524 70.5265C56.4265 70.5265 56 70.9923 56 71.5666C56 73.4728 57.3004 75.0755 59.0476 75.5105V75.9598C59.0476 76.5342 59.4741 77 60 77C60.5259 77 60.9524 76.5342 60.9524 75.9598V75.5105C62.6996 75.0755 64 73.4728 64 71.5666C64 69.3274 62.2056 67.5056 60 67.5056Z" fill="#474747"/>
<path d="M80.9573 65.7148C79.2395 65.7148 77.842 67.1248 77.842 68.8579C77.842 70.5911 79.2395 72.0009 80.9573 72.0009C82.6751 72.0009 84.0725 70.5911 84.0725 68.8579C84.0725 67.1248 82.6751 65.7148 80.9573 65.7148ZM80.9573 70.2866C80.1764 70.2866 79.5413 69.6458 79.5413 68.8579C79.5413 68.0701 80.1764 67.4292 80.9573 67.4292C81.7381 67.4292 82.3733 68.0701 82.3733 68.8579C82.3733 69.6458 81.7381 70.2866 80.9573 70.2866Z" fill="#474747"/>
<defs>
<linearGradient id="paint0_linear" x1="1" y1="1" x2="123" y2="123" gradientUnits="userSpaceOnUse">
<stop stop-color="#F8E326"/>
<stop offset="1" stop-color="#FFB432"/>
</linearGradient>
</defs>
</svg>
