<svg width="187" height="178" viewBox="0 0 187 178" fill="none" xmlns="http://www.w3.org/2000/svg">
<g filter="url(#filter0_d)">
<path d="M124.853 50H100.254C98.0204 50 96.2078 51.8126 96.2078 54.0459V78.6453C96.2078 80.8787 98.0204 82.6912 100.254 82.6912H112.027C111.874 89.1325 110.377 94.2869 107.545 98.1629C105.311 101.222 101.929 103.754 97.4054 105.753C95.3258 106.667 94.4276 109.127 95.3987 111.183L98.3117 117.333C99.2504 119.307 101.573 120.173 103.58 119.307C108.936 116.993 113.46 114.063 117.15 110.503C121.649 106.158 124.732 101.254 126.399 95.7839C128.066 90.3138 128.899 82.8531 128.899 73.3856V54.0459C128.899 51.8127 127.086 50 124.853 50Z" fill="url(#paint0_linear)"/>
<path d="M58.5804 119.291C63.8725 116.985 68.3716 114.055 72.0858 110.503C76.6253 106.158 79.7245 101.27 81.3914 95.8405C83.0584 90.4109 83.8918 82.9259 83.8918 73.3856V54.0459C83.8918 51.8126 82.0792 50 79.8458 50H55.2465C53.0131 50 51.2005 51.8126 51.2005 54.0459V78.6453C51.2005 80.8787 53.0131 82.6912 55.2465 82.6912H67.0202C66.8664 89.1325 65.3694 94.2869 62.5373 98.1629C60.3039 101.222 56.9215 103.754 52.3981 105.753C50.3185 106.667 49.4203 109.127 50.3913 111.183L53.2963 117.317C54.2351 119.291 56.5736 120.165 58.5804 119.291Z" fill="url(#paint1_linear)"/>
</g>
<defs>
<filter id="filter0_d" x="0" y="0" width="186.899" height="177.642" filterUnits="userSpaceOnUse" color-interpolation-filters="sRGB">
<feFlood flood-opacity="0" result="BackgroundImageFix"/>
<feColorMatrix in="SourceAlpha" type="matrix" values="0 0 0 0 0 0 0 0 0 0 0 0 0 0 0 0 0 0 127 0"/>
<feOffset dx="4" dy="4"/>
<feGaussianBlur stdDeviation="27"/>
<feColorMatrix type="matrix" values="0 0 0 0 0 0 0 0 0 0 0 0 0 0 0 0 0 0 0.06 0"/>
<feBlend mode="normal" in2="BackgroundImageFix" result="effect1_dropShadow"/>
<feBlend mode="normal" in="SourceGraphic" in2="effect1_dropShadow" result="shape"/>
</filter>
<linearGradient id="paint0_linear" x1="95.0073" y1="50" x2="149.811" y2="76.6707" gradientUnits="userSpaceOnUse">
<stop stop-color="#F8E326"/>
<stop offset="1" stop-color="#FFB432"/>
</linearGradient>
<linearGradient id="paint1_linear" x1="50" y1="50" x2="104.8" y2="76.6737" gradientUnits="userSpaceOnUse">
<stop stop-color="#F8E326"/>
<stop offset="1" stop-color="#FFB432"/>
</linearGradient>
</defs>
</svg>
