<svg width="7" height="13" viewBox="0 0 7 13" fill="none" xmlns="http://www.w3.org/2000/svg">
<path d="M0.993352 12.9983C0.761661 12.9987 0.537126 12.9234 0.358724 12.7852C0.258315 12.7074 0.175316 12.6119 0.114479 12.5041C0.0536416 12.3963 0.0161625 12.2784 0.00418798 12.157C-0.00778654 12.0357 0.00597898 11.9133 0.0446958 11.7969C0.0834126 11.6806 0.146319 11.5725 0.229814 11.4788L4.67221 6.51271L0.388472 1.53731C0.306104 1.44254 0.244592 1.33349 0.207475 1.21644C0.170357 1.09938 0.158365 0.976626 0.172187 0.855226C0.186009 0.733826 0.225373 0.616175 0.288017 0.509036C0.35066 0.401897 0.435349 0.307381 0.537213 0.230923C0.639811 0.146576 0.75996 0.0829541 0.89012 0.0440506C1.02028 0.00514704 1.15764 -0.00819823 1.29359 0.00485166C1.42953 0.0179015 1.56112 0.0570652 1.68009 0.119885C1.79907 0.182704 1.90286 0.267823 1.98496 0.3699L6.77442 5.929C6.92027 6.09479 7 6.30273 7 6.51734C7 6.73194 6.92027 6.93989 6.77442 7.10568L1.81639 12.6648C1.71691 12.7769 1.59055 12.8655 1.44755 12.9235C1.30455 12.9814 1.14894 13.0071 0.993352 12.9983Z" fill="url(#paint0_linear)"/>
<defs>
<linearGradient id="paint0_linear" x1="0" y1="0" x2="10.8532" y2="5.84404" gradientUnits="userSpaceOnUse">
<stop stop-color="#F8E326"/>
<stop offset="1" stop-color="#FFB432"/>
</linearGradient>
</defs>
</svg>
