<svg width="13" height="13" viewBox="0 0 13 13" fill="none" xmlns="http://www.w3.org/2000/svg">
<path d="M11 0H2C1.46974 0.000579017 0.961373 0.211479 0.586426 0.586426C0.211479 0.961373 0.000579017 1.46974 0 2V11C0.000579017 11.5303 0.211479 12.0386 0.586426 12.4136C0.961373 12.7885 1.46974 12.9994 2 13H11C11.5303 12.9994 12.0386 12.7885 12.4136 12.4136C12.7885 12.0386 12.9994 11.5303 13 11V2C12.9994 1.46974 12.7885 0.961373 12.4136 0.586426C12.0386 0.211479 11.5303 0.000579017 11 0ZM9.88281 4.32156L5.68281 9.32156C5.63674 9.37644 5.57941 9.42077 5.51471 9.45156C5.45001 9.48234 5.37945 9.49886 5.30781 9.5H5.29938C5.22929 9.49997 5.16 9.48522 5.09599 9.45668C5.03198 9.42815 4.97468 9.38648 4.92781 9.33438L3.12781 7.33438C3.0821 7.28589 3.04654 7.22876 3.02322 7.16633C2.9999 7.10391 2.9893 7.03745 2.99203 6.97087C2.99477 6.90429 3.01078 6.83892 3.03914 6.77862C3.06749 6.71831 3.10761 6.66429 3.15715 6.61971C3.20668 6.57514 3.26462 6.54091 3.32757 6.51905C3.39052 6.49719 3.45721 6.48813 3.52371 6.4924C3.59021 6.49668 3.65518 6.51421 3.71481 6.54396C3.77444 6.5737 3.82752 6.61507 3.87094 6.66562L5.28625 8.23812L9.11719 3.67844C9.20312 3.57909 9.3247 3.51754 9.45564 3.50711C9.58658 3.49668 9.71637 3.53819 9.81695 3.62268C9.91753 3.70716 9.98083 3.82784 9.99315 3.95862C10.0055 4.0894 9.96584 4.21977 9.88281 4.32156Z" fill="url(#paint0_linear)"/>
<defs>
<linearGradient id="paint0_linear" x1="13" y1="13" x2="0" y2="0" gradientUnits="userSpaceOnUse">
<stop stop-color="#F8E326"/>
<stop offset="1" stop-color="#FFB432"/>
</linearGradient>
</defs>
</svg>
