<svg width="37" height="37" viewBox="0 0 37 37" fill="none" xmlns="http://www.w3.org/2000/svg">
<circle cx="18.5" cy="18.5" r="18.5" transform="rotate(-180 18.5 18.5)" fill="url(#paint0_linear)"/>
<path d="M27.6667 17.6501H11.0421L17.4079 11.4656C17.7413 11.1417 17.7542 10.6037 17.4367 10.2637C17.1196 9.92413 16.5921 9.91053 16.2583 10.2344L8.98833 17.2978C8.67375 17.6191 8.5 18.0458 8.5 18.5001C8.5 18.954 8.67375 19.3811 9.00292 19.7164L16.2587 26.7654C16.42 26.9222 16.6267 27 16.8333 27C17.0533 27 17.2733 26.9116 17.4371 26.7361C17.7546 26.3961 17.7417 25.8585 17.4083 25.5346L11.0158 19.3501H27.6667C28.1267 19.3501 28.5 18.9693 28.5 18.5001C28.5 18.0309 28.1267 17.6501 27.6667 17.6501Z" fill="white"/>
<defs>
<linearGradient id="paint0_linear" x1="1.90735e-06" y1="-1.90735e-06" x2="37" y2="37" gradientUnits="userSpaceOnUse">
<stop stop-color="#F8E326"/>
<stop offset="1" stop-color="#FFB432"/>
</linearGradient>
</defs>
</svg>
